<?xml version="1.0" encoding="utf-8"?>
<!-- Generator: Adobe Illustrator 24.0.2, SVG Export Plug-In . SVG Version: 6.00 Build 0)  -->
<svg version="1.1" id="f61e7f2c-3df8-44b9-b514-d2b672d0e0d5"
	 xmlns="http://www.w3.org/2000/svg" xmlns:xlink="http://www.w3.org/1999/xlink" x="0px" y="0px" width="1208.6px"
	 height="810.9px" viewBox="0 0 1208.6 810.9" style="enable-background:new 0 0 1208.6 810.9;" xml:space="preserve">
<style type="text/css">
	.st0{fill:#F0F0F0;}
	.st1{fill:#2F2E41;}
	.st2{fill:#FFB8B8;}
	.st3{fill:#FFC843;}
	.st4{fill:#006DAF;}
	.st5{fill:#3F3D56;}
	.st6{fill:none;stroke:#FFC843;stroke-width:2;stroke-miterlimit:10;}
	.st7{fill:#D0CDE1;}
	.st8{opacity:0.15;enable-background:new    ;}
</style>
<path class="st0" d="M179,29.3C39.8,100.9-61.1,301.2,57.2,492.4s349.1,324,590.6,313.9s534.9-22.5,557.1-143
	c22.2-120.4-68.2-288.6-263.7-305.2S465.9-118.3,179,29.3z"/>
<title>dev_focus</title>
<circle class="st1" cx="687.7" cy="294" r="36.4"/>
<path class="st1" d="M697.9,258.6c20.1,0,36.4,16.3,36.4,36.4c0,6-1.5,12-4.4,17.3c12.5-15.7,10-38.6-5.7-51.1
	c-15.7-12.5-38.6-10-51.1,5.7c-1.4,1.7-2.6,3.5-3.6,5.5C676.4,263.6,686.8,258.6,697.9,258.6z"/>
<circle class="st1" cx="619.7" cy="187" r="106.9"/>
<path class="st1" d="M535.8,120.7c38.3-43.1,103.8-48,148.2-11.2c-0.9-0.8-1.7-1.7-2.6-2.5c-44.1-39.2-111.7-35.2-150.9,8.9
	c-39.2,44.1-35.2,111.6,8.9,150.9c0.9,0.8,1.8,1.6,2.8,2.3C500.3,229.4,497.5,163.7,535.8,120.7z"/>
<circle class="st2" cx="618.8" cy="224.2" r="68.9"/>
<path class="st2" d="M569.9,245.9c0,0,9.1,83.4-5.4,92.4s83.4,21.7,83.4,21.7s-14.5-90.6,21.7-114.2L569.9,245.9z"/>
<path class="st3" d="M656.9,323.8c0,0,27-12.6-11.9-8.1S572.6,303,572.6,303s-11.8-11.8-13.6,0.9s5.4,36.2-34.4,39.9
	s-76.1-7.2-90.6,19.9s-7.2,145-7.2,145s27.2,97.9,48.9,112.3s212-5.4,212-5.4l54.4-97.9V403.5c0,0-7.2-39.9-58-29
	c0,0-32.6-7.2-30.8-23.6S656.9,323.8,656.9,323.8z"/>
<path class="st1" d="M482.9,690.2c1.1-4.9,1.9-7.6,1.9-7.6l-0.6-4l-6-40.5l-2.5-17.1c21.7-9.1,27.2-50.7,27.2-50.7l0.8-0.5l3.7-2.2
	v0l13.3-8l0.3-0.2l5.4,3.6l10.9,7.3c38.2,28.1,77.2,27.6,101.2,23.2c14.7-2.7,23.8-6.9,23.8-6.9l26.4-8.8l0.8-0.3l0.8,0.1l15.5,2.3
	l0.3,0l1.3,0.2l-3.6,24.8l-5.2,36c13.7,7.3,25.9,20.9,36.6,37.7c2.4,3.7,4.6,7.6,6.9,11.6c2.9,5.2,5.6,10.6,8.3,16.2
	c0.3,0.7,0.6,1.3,0.9,2c1,2.2,2,4.4,3,6.6H478.1c0.4-2.2,0.7-4.3,1.1-6.3c0-0.1,0-0.1,0-0.2c0.1-0.7,0.3-1.3,0.4-2
	C480.7,699.8,481.9,694.3,482.9,690.2z"/>
<path class="st1" d="M472,341.9c0,0,19.9,36.2,12.7,81.5s21.7,157.7,21.7,157.7l21.7-5.4c0,0-14.5-94.2-10.9-116
	s3.6-106.9-14.5-117.8C484.7,331.1,472,341.9,472,341.9z"/>
<path class="st1" d="M682.8,379.6l7.6,200.6l14.5,9.1c0,0,20.8-220.2,10-220.2h-22.1c-5.5,0-10,4.5-10,10
	C682.8,379.3,682.8,379.4,682.8,379.6z"/>
<circle class="st4" cx="516.4" cy="567.5" r="9.1"/>
<circle class="st4" cx="697.6" cy="576.6" r="9.1"/>
<polygon class="st1" points="559.9,138.1 559.9,206.9 575.9,206.9 596.2,185.2 593.4,206.9 663.9,206.9 659.6,185.2 668.3,206.9 
	679.5,206.9 679.5,138.1 "/>
<ellipse class="st2" cx="549.1" cy="209.7" rx="5.4" ry="10"/>
<ellipse class="st2" cx="688.6" cy="209.7" rx="5.4" ry="10"/>
<path class="st2" d="M725.7,575.7c0,0-82.4-15.4-87.9,11.8s91.5,15.4,91.5,15.4L725.7,575.7z"/>
<path class="st3" d="M723.9,389c0,0,197.5,157.7,161.3,195.7s-174,27.2-174,27.2l9.1-45.3l79.7-9.1l-39.9-39.9l-36.2,3.6L723.9,389z
	"/>
<path class="st2" d="M432.2,651.8l25.4,19.9c0,0,18.1,56.2,45.3,39.9c27.2-16.3-25.4-74.3-25.4-74.3l-30.8-10.9L432.2,651.8z"/>
<path class="st3" d="M457.5,360.1l-25.3,7.6c0,0-175.8,130.1-183.1,166.3c-7.2,36.2,34.4,56.2,34.4,56.2l157.7,74.3l16.3-43.5
	l-74.3-38.1c0,0,5.4-10.9-16.3-12.7s-25.4-25.4-25.4-25.4s43.5-67,67-52.6s30.8,25.4,30.8,25.4L457.5,360.1z"/>
<path class="st5" d="M818.4,696.5v6.1c0,1.7-0.3,3.3-0.9,4.9c-0.3,0.7-0.6,1.4-1,2c-2.4,4.1-6.8,6.6-11.5,6.6H358.4
	c-4.7,0-9.1-2.5-11.5-6.6c-0.4-0.6-0.7-1.3-1-2c-0.6-1.6-0.9-3.2-0.9-4.9v-6.1c0-7.4,6-13.4,13.4-13.4c0,0,0,0,0,0h25.7v-2.8
	c0-0.3,0.2-0.6,0.6-0.6c0,0,0,0,0,0h13.4c0.3,0,0.6,0.2,0.6,0.6c0,0,0,0,0,0v2.8h8.4v-2.8c0-0.3,0.2-0.6,0.6-0.6c0,0,0,0,0,0h13.4
	c0.3,0,0.6,0.2,0.6,0.6c0,0,0,0,0,0v2.8h8.4v-2.8c0-0.3,0.2-0.6,0.6-0.6c0,0,0,0,0,0H444c0.3,0,0.6,0.2,0.6,0.6c0,0,0,0,0,0v2.8h8.4
	v-2.8c0-0.3,0.2-0.6,0.6-0.6c0,0,0,0,0,0H467c0.3,0,0.6,0.2,0.6,0.6c0,0,0,0,0,0v2.8h8.4v-2.8c0-0.3,0.2-0.6,0.6-0.6c0,0,0,0,0,0
	h13.4c0.3,0,0.6,0.2,0.6,0.6c0,0,0,0,0,0v2.8h8.4v-2.8c0-0.3,0.2-0.6,0.6-0.6c0,0,0,0,0,0h13.4c0.3,0,0.6,0.2,0.6,0.6c0,0,0,0,0,0
	v2.8h8.4v-2.8c0-0.3,0.2-0.6,0.6-0.6c0,0,0,0,0,0h105.2c0.3,0,0.6,0.2,0.6,0.6c0,0,0,0,0,0v2.8h8.4v-2.8c0-0.3,0.2-0.6,0.6-0.6
	c0,0,0,0,0,0h13.4c0.3,0,0.6,0.3,0.6,0.6v2.8h8.4v-2.8c0-0.3,0.2-0.6,0.6-0.6c0,0,0,0,0,0h13.4c0.3,0,0.6,0.2,0.6,0.6c0,0,0,0,0,0
	v2.8h8.4v-2.8c0-0.3,0.2-0.6,0.6-0.6c0,0,0,0,0,0h13.4c0.3,0,0.6,0.2,0.6,0.6c0,0,0,0,0,0v2.8h8.4v-2.8c0-0.3,0.2-0.6,0.6-0.6
	c0,0,0,0,0,0h13.4c0.3,0,0.6,0.3,0.5,0.6v2.8h8.4v-2.8c0-0.3,0.2-0.6,0.6-0.6c0,0,0,0,0,0h13.4c0.3,0,0.6,0.2,0.6,0.6c0,0,0,0,0,0
	v2.8h8.4v-2.8c0-0.3,0.2-0.6,0.6-0.6c0,0,0,0,0,0h13.4c0.3,0,0.6,0.2,0.6,0.6c0,0,0,0,0,0v2.8H805C812.4,683,818.4,689,818.4,696.5
	C818.4,696.4,818.4,696.5,818.4,696.5z"/>
<rect x="215.3" y="707.4" class="st5" width="733" height="2"/>
<path class="st5" d="M782.4,440.8H616v-3.4h-75.5v3.4H373.4c-6.2,0-11.3,5-11.3,11.3V680c0,6.2,5,11.3,11.3,11.3h409
	c6.2,0,11.3-5,11.3-11.3V452.1C793.7,445.9,788.7,440.8,782.4,440.8L782.4,440.8z"/>
<circle class="st6" cx="578.3" cy="520.4" r="25"/>
<circle class="st3" cx="570.3" cy="529.4" r="25"/>
<rect x="79.8" y="743.5" class="st5" width="189" height="2.3"/>
<path class="st5" d="M189.9,670.7c-19.9,32.5-13.1,72.9-13.1,72.9s39.1-12.3,59-44.8s13.1-72.9,13.1-72.9S209.9,638.2,189.9,670.7z"
	/>
<path class="st4" d="M176.1,743.9l-1.1-0.2c-0.4-0.1-41.2-6.8-65.6-36c-24.4-29.2-23.8-70.5-23.8-70.9l0-1.1l1.1,0.2
	c0.4,0.1,41.2,6.8,65.6,36l0,0c24.4,29.2,23.8,70.5,23.8,70.9L176.1,743.9z"/>
<path class="st5" d="M177.7,744.9l-1.1-0.3c-0.4-0.1-39.7-12.8-59.6-45.2c-19.9-32.5-13.3-73.2-13.2-73.6l0.2-1.1l1.1,0.3
	c0.4,0.1,39.7,12.8,59.6,45.2l0,0c19.9,32.5,13.3,73.2,13.2,73.6L177.7,744.9z M105.6,627.2c-0.9,6.8-4.5,42.3,13.1,71.1
	c17.6,28.7,50.9,41.7,57.4,44c0.9-6.8,4.5-42.3-13.1-71.1l0,0C145.4,642.5,112.1,629.6,105.6,627.2L105.6,627.2z"/>
<circle class="st5" cx="178.1" cy="616.3" r="22"/>
<polygon class="st5" points="453.6,338.2 327.4,211 267.8,211 267.8,209 328.2,209 328.5,209.3 455,336.8 "/>
<polygon class="st5" points="750,334.2 876.2,207 935.8,207 935.8,205 875.4,205 875.1,205.3 748.6,332.8 "/>
<rect x="53.8" y="148.3" class="st7" width="146" height="28.9"/>
<rect x="53.8" y="192.6" class="st7" width="146" height="28.9"/>
<rect x="53.8" y="236.9" class="st7" width="146" height="28.9"/>
<rect x="53.8" y="148.3" class="st8" width="60.4" height="28.9"/>
<rect x="53.8" y="192.6" class="st8" width="19.6" height="28.9"/>
<rect x="53.8" y="236.9" class="st8" width="97.3" height="28.9"/>
<rect x="1008.6" y="154.8" class="st7" width="146.2" height="13"/>
<rect x="953.8" y="153.1" class="st4" width="29" height="29"/>
<rect x="953.8" y="196.5" class="st4" width="29" height="29"/>
<rect x="953.8" y="240" class="st4" width="29" height="29"/>
<path class="st5" d="M990.8,176.1h-31v-31h31V176.1z M961.8,174.1h27v-27h-27V174.1z"/>
<rect x="1008.6" y="198.2" class="st7" width="146.2" height="13"/>
<path class="st5" d="M990.8,219.5h-31v-31h31V219.5z M961.8,217.5h27v-27h-27V217.5z"/>
<rect x="1008.6" y="241.7" class="st7" width="146.2" height="13"/>
<path class="st5" d="M990.8,262.9h-31v-31h31V262.9z M961.8,260.9h27v-27h-27V260.9z"/>
<circle class="st4" cx="242.8" cy="163" r="16"/>
<circle class="st4" cx="242.8" cy="211" r="16"/>
<circle class="st4" cx="242.8" cy="254" r="16"/>
<path class="st5" d="M234.8,176c-9.4,0-17-7.6-17-17s7.6-17,17-17s17,7.6,17,17C251.8,168.4,244.2,176,234.8,176z M234.8,144
	c-8.3,0-15,6.7-15,15s6.7,15,15,15s15-6.7,15-15C249.8,150.7,243.1,144,234.8,144z"/>
<path class="st5" d="M234.8,224c-9.4,0-17-7.6-17-17s7.6-17,17-17s17,7.6,17,17C251.8,216.4,244.2,224,234.8,224z M234.8,192
	c-8.3,0-15,6.7-15,15s6.7,15,15,15s15-6.7,15-15C249.8,198.7,243.1,192,234.8,192z"/>
<path class="st5" d="M234.8,267c-9.4,0-17-7.6-17-17c0-9.4,7.6-17,17-17s17,7.6,17,17C251.8,259.4,244.2,267,234.8,267z M234.8,235
	c-8.3,0-15,6.7-15,15c0,8.3,6.7,15,15,15s15-6.7,15-15C249.8,241.7,243.1,235,234.8,235z"/>
</svg>
